# xmcd CD database file
#
# Track frame offsets:
#	150
#	23185
#	39235
#
# Disc length: 828 seconds
#
# Revision: 0
# Processed by: cddbd v1.5PL3 Copyright (c) Steve Scherf et al.
# Submitted via: CDex 1.50beta10
#
DISCID=18033a03
DTITLE=遊佐未森 - 生活のプリン
DYEAR=1996
DGENRE=JPop
TTITLE0=生活のプリン
TTITLE1=虹を見ること[prismix]
TTITLE2=生活のプリン[backing track]
EXTD=YEAR: 1996
EXTT0=
EXTT1=
EXTT2=
PLAYORDER=
